# xmcd
#
# Track frame offsets:
#	150
#	15670
#	30393
#	45825
#	60653
#	75104
#	89605
#	108007
#	121383
#	135829
#
# Disc length: 2018 seconds
#
# Revision: 0
# Processed by: cddbd v1.5.2PL0 Copyright (c) Steve Scherf et al.
# Submitted via: EZCDAudioConverter 2.0.6.1
#
DISCID=6207e00a
DTITLE=Steven Whitson - The One
DYEAR=2013
DGENRE=Country
TTITLE0=The One
TTITLE1=Waiting
TTITLE2=Holiday
TTITLE3=I Could Get Used To This
TTITLE4=What You Have
TTITLE5=Sweet Tea
TTITLE6=If Love Wrote A Love Song
TTITLE7=Heartbreak In The Making 
TTITLE8=Best Thing 
TTITLE9=One Good Cry
EXTD=
EXTT0=
EXTT1=
EXTT2=
EXTT3=
EXTT4=
EXTT5=
EXTT6=
EXTT7=
EXTT8=
EXTT9=
PLAYORDER=
